<svg width="134" height="40" viewBox="0 0 134 40" fill="none" xmlns="http://www.w3.org/2000/svg">
<path d="M71.9337 32.1036C71.9337 32.8939 71.7838 33.6365 71.4841 34.3314C71.1843 35.0263 70.7755 35.6361 70.2578 36.1607C69.74 36.6784 69.1337 37.0906 68.4387 37.3972C67.7438 37.697 67.0012 37.8502 66.211 37.8571H58.3626V22.1603H60.4575V35.7621H66.211C66.7151 35.7621 67.1852 35.6667 67.6212 35.476C68.064 35.2784 68.449 35.0161 68.776 34.6891C69.103 34.3553 69.3619 33.9669 69.5526 33.5241C69.7434 33.0813 69.8388 32.6078 69.8388 32.1036C69.8388 31.5995 69.7434 31.126 69.5526 30.6832C69.3619 30.2403 69.103 29.8554 68.776 29.5284C68.449 29.1946 68.064 28.9323 67.6212 28.7415C67.1852 28.5439 66.7151 28.4417 66.211 28.4349H61.5101V26.3502H66.211C67.0012 26.3502 67.7438 26.5035 68.4387 26.8101C69.1337 27.1098 69.74 27.522 70.2578 28.0466C70.7755 28.5644 71.1843 29.1741 71.4841 29.8758C71.7838 30.5707 71.9337 31.3133 71.9337 32.1036ZM88.121 32.1036C88.121 32.8939 87.9711 33.6365 87.6713 34.3314C87.3716 35.0263 86.9628 35.6361 86.445 36.1607C85.9341 36.6784 85.3311 37.0906 84.6362 37.3972C83.9413 37.697 83.1987 37.8502 82.4084 37.8571H79.1894C78.3991 37.8502 77.6565 37.697 76.9616 37.3972C76.2667 37.0906 75.6603 36.6784 75.1426 36.1607C74.6316 35.6361 74.2262 35.0263 73.9265 34.3314C73.6267 33.6365 73.4768 32.8939 73.4768 32.1036C73.4768 31.3133 73.6267 30.5707 73.9265 29.8758C74.2262 29.1741 74.6316 28.5644 75.1426 28.0466C75.6603 27.522 76.2667 27.1098 76.9616 26.8101C77.6565 26.5035 78.3991 26.3502 79.1894 26.3502H82.4084C82.933 26.3502 83.4406 26.4183 83.9311 26.5546C84.4216 26.6908 84.8781 26.885 85.3005 27.1371C85.7229 27.3892 86.1078 27.6923 86.4553 28.0466C86.8027 28.394 87.0991 28.7824 87.3443 29.2116C87.5896 29.634 87.7804 30.0904 87.9166 30.581C88.0529 31.0715 88.121 31.579 88.121 32.1036ZM86.0363 32.1036C86.0363 31.5995 85.9409 31.126 85.7501 30.6832C85.5594 30.2403 85.3005 29.8554 84.9735 29.5284C84.6465 29.1946 84.2615 28.9323 83.8187 28.7415C83.3827 28.5439 82.9126 28.4417 82.4084 28.4349H79.1894C78.6852 28.4417 78.2117 28.5439 77.7689 28.7415C77.3329 28.9323 76.9514 29.1946 76.6244 29.5284C76.2973 29.8554 76.0385 30.2403 75.8477 30.6832C75.6637 31.126 75.5718 31.5995 75.5718 32.1036C75.5718 32.6078 75.6637 33.0813 75.8477 33.5241C76.0385 33.9669 76.2973 34.3553 76.6244 34.6891C76.9514 35.0161 77.3329 35.2784 77.7689 35.476C78.2117 35.6667 78.6852 35.7621 79.1894 35.7621H82.4084C82.9126 35.7621 83.3827 35.6667 83.8187 35.476C84.2615 35.2784 84.6465 35.0161 84.9735 34.6891C85.3005 34.3553 85.5594 33.9669 85.7501 33.5241C85.9409 33.0813 86.0363 32.6078 86.0363 32.1036ZM104.329 32.1036C104.329 32.8939 104.179 33.6365 103.879 34.3314C103.579 35.0263 103.171 35.6361 102.653 36.1607C102.142 36.6784 101.539 37.0906 100.844 37.3972C100.149 37.697 99.4064 37.8502 98.6161 37.8571H95.3971C94.6068 37.8502 93.8642 37.697 93.1693 37.3972C92.4744 37.0906 91.868 36.6784 91.3503 36.1607C90.8393 35.6361 90.4339 35.0263 90.1342 34.3314C89.8344 33.6365 89.6845 32.8939 89.6845 32.1036C89.6845 31.3133 89.8344 30.5707 90.1342 29.8758C90.4339 29.1741 90.8393 28.5644 91.3503 28.0466C91.868 27.522 92.4744 27.1098 93.1693 26.8101C93.8642 26.5035 94.6068 26.3502 95.3971 26.3502H98.6161C99.1407 26.3502 99.6483 26.4183 100.139 26.5546C100.629 26.6908 101.086 26.885 101.508 27.1371C101.931 27.3892 102.316 27.6923 102.663 28.0466C103.01 28.394 103.307 28.7824 103.552 29.2116C103.797 29.634 103.988 30.0904 104.124 30.581C104.261 31.0715 104.329 31.579 104.329 32.1036ZM102.244 32.1036C102.244 31.5995 102.149 31.126 101.958 30.6832C101.767 30.2403 101.508 29.8554 101.181 29.5284C100.854 29.1946 100.469 28.9323 100.026 28.7415C99.5904 28.5439 99.1203 28.4417 98.6161 28.4349H95.3971C94.8929 28.4417 94.4194 28.5439 93.9766 28.7415C93.5406 28.9323 93.1591 29.1946 92.8321 29.5284C92.505 29.8554 92.2462 30.2403 92.0554 30.6832C91.8715 31.126 91.7795 31.5995 91.7795 32.1036C91.7795 32.6078 91.8715 33.0813 92.0554 33.5241C92.2462 33.9669 92.505 34.3553 92.8321 34.6891C93.1591 35.0161 93.5406 35.2784 93.9766 35.476C94.4194 35.6667 94.8929 35.7621 95.3971 35.7621H98.6161C99.1203 35.7621 99.5904 35.6667 100.026 35.476C100.469 35.2784 100.854 35.0161 101.181 34.6891C101.508 34.3553 101.767 33.9669 101.958 33.5241C102.149 33.0813 102.244 32.6078 102.244 32.1036ZM118.636 34.1986C118.636 34.7027 118.54 35.1796 118.349 35.6293C118.159 36.0721 117.896 36.4604 117.563 36.7943C117.236 37.1213 116.847 37.3802 116.398 37.5709C115.955 37.7617 115.481 37.8571 114.977 37.8571H106.076V35.7621H114.977C115.188 35.7621 115.389 35.7212 115.58 35.6395C115.771 35.5577 115.938 35.4453 116.081 35.3022C116.224 35.1592 116.336 34.9957 116.418 34.8117C116.5 34.621 116.541 34.4166 116.541 34.1986C116.541 33.9874 116.5 33.7864 116.418 33.5956C116.336 33.4049 116.224 33.238 116.081 33.0949C115.938 32.9518 115.771 32.8394 115.58 32.7577C115.389 32.6691 115.188 32.6248 114.977 32.6248H109.213C108.777 32.6248 108.369 32.5431 107.987 32.3795C107.606 32.216 107.272 31.9946 106.986 31.7153C106.706 31.4292 106.485 31.0953 106.321 30.7138C106.158 30.3323 106.076 29.9235 106.076 29.4875C106.076 29.0515 106.158 28.6427 106.321 28.2612C106.485 27.8797 106.706 27.5493 106.986 27.2699C107.272 26.9838 107.606 26.759 107.987 26.5955C108.369 26.4319 108.777 26.3502 109.213 26.3502H117.593V28.4349H109.213C108.921 28.4349 108.672 28.5371 108.467 28.7415C108.27 28.9391 108.171 29.1877 108.171 29.4875C108.171 29.7805 108.27 30.0291 108.467 30.2335C108.672 30.4311 108.921 30.5299 109.213 30.5299H114.977C115.481 30.5299 115.955 30.6252 116.398 30.816C116.847 31.0068 117.236 31.2691 117.563 31.6029C117.896 31.9367 118.159 32.325 118.349 32.7679C118.54 33.2107 118.636 33.6876 118.636 34.1986ZM124.788 37.8571H122.693V28.4349H119.555V26.3502H122.693V22.1603H124.788V26.3502H132.115V28.4349H124.788V37.8571Z" fill="white"/>
<path d="M59.5656 14.2442H34.824V38H30.8615V10.2817H59.5656V14.2442ZM56.1637 26.1318H36.7956V22.1693H56.1637V26.1318Z" fill="white"/>
<path d="M7.28717 38H3.32465V10.2817H5.29625C6.58487 10.2817 7.95081 10.4492 9.39407 10.7843C10.8502 11.1193 12.3321 11.6025 13.8398 12.234C15.3475 12.8654 16.8488 13.6321 18.3436 14.5342C19.8513 15.4233 21.3074 16.4349 22.712 17.5689C24.1166 18.7029 25.4374 19.9399 26.6745 21.2801C27.9116 22.6074 29.0198 24.0249 29.9992 25.5326V10.2817H33.9617V38H29.9992C29.9992 35.964 29.6448 34.0053 28.9361 32.1239C28.2273 30.2296 27.2802 28.4449 26.0946 26.7696C24.9091 25.0944 23.5432 23.5545 21.9968 22.1499C20.4505 20.7324 18.8332 19.4889 17.1451 18.4194C15.4699 17.3498 13.7818 16.4735 12.0809 15.7906C10.3799 15.0947 8.78197 14.6308 7.28717 14.3988V38Z" fill="white"/>
</svg>
