<svg width="231" height="107" viewBox="0 0 231 107" fill="none" xmlns="http://www.w3.org/2000/svg">
<path fill-rule="evenodd" clip-rule="evenodd" d="M63.7044 53.7112L77.2373 40.197C79.6978 37.7399 81.0819 34.4381 81.0819 30.9828V12.9767C81.0819 5.79728 75.2766 0 68.0872 0H0.922696C0.422903 0 0 0.422319 0 0.921422V94.1002C0 101.088 5.68996 106.77 12.6871 106.77H68.1257C75.315 106.77 81.1203 100.972 81.1203 93.793V76.478C81.1203 73.0227 79.7363 69.6825 77.2758 67.2638L63.7044 53.7112ZM59.1276 23.6882H51.1309V32.4417H43.1342V23.6882H35.1375V32.4417H27.1408V23.6882H18.875V32.4417V48.0675H24.2189H39.3665H53.9759H59.1276V39.0837V23.6882ZM44.5971 59.1245H54.593H59.8985V84.502H54.6699H47.7112V84.3484C47.7112 80.1636 44.2511 76.7851 39.9836 76.7851C35.7162 76.7851 32.256 80.1636 32.256 84.3484V84.502H24.7591H19.6074V59.1245H24.7976H34.6781H44.5971Z" fill="white"/>
<path d="M124.795 41.0416H148.055V69.1066H124.949V107H92.3086V0.115112H150.208V29.5622H124.834V41.0416H124.795Z" fill="white"/>
<path d="M211.835 107H179.502V27.9113H160.625V0.115112H230.75V27.8729H211.873V107H211.835Z" fill="white"/>
</svg>
