<?xml version="1.0" standalone="no"?>
<!DOCTYPE svg PUBLIC "-//W3C//DTD SVG 20010904//EN"
 "http://www.w3.org/TR/2001/REC-SVG-20010904/DTD/svg10.dtd">
<svg version="1.0" xmlns="http://www.w3.org/2000/svg"
 width="50.000000pt" height="50.000000pt" viewBox="0 0 50.000000 50.000000"
 preserveAspectRatio="xMidYMid meet">

<g transform="translate(0.000000,50.000000) scale(0.100000,-0.100000)"
fill="#000000" stroke="none">
<path d="M0 454 c0 -11 244 -424 250 -424 6 0 250 413 250 424 0 3 -45 6 -100
6 l-99 0 -23 -40 c-13 -22 -25 -40 -28 -40 -3 0 -15 18 -28 40 l-23 40 -99 0
c-55 0 -100 -3 -100 -6z m171 -134 c37 -63 72 -115 79 -115 7 0 42 52 79 115
66 112 68 115 105 118 l39 3 -20 -33 c-129 -222 -198 -338 -203 -338 -5 0 -74
116 -203 338 l-20 33 39 -3 c37 -3 39 -6 105 -118z m43 75 c15 -25 31 -45 36
-45 5 0 21 20 36 45 21 37 31 45 56 45 16 0 28 -4 26 -9 -7 -21 -113 -201
-118 -201 -5 0 -111 180 -118 201 -2 5 10 9 26 9 25 0 35 -8 56 -45z"/>
</g>
</svg>
