<?xml version="1.0" standalone="no"?>
<!DOCTYPE svg PUBLIC "-//W3C//DTD SVG 20010904//EN"
 "http://www.w3.org/TR/2001/REC-SVG-20010904/DTD/svg10.dtd">
<svg version="1.0" xmlns="http://www.w3.org/2000/svg"
 width="64.000000pt" height="64.000000pt" viewBox="0 0 64.000000 64.000000"
 preserveAspectRatio="xMidYMid meet">

<g transform="translate(0.000000,64.000000) scale(0.100000,-0.100000)"
fill="#000000" stroke="none">
<path d="M290 573 c-14 -9 -29 -23 -33 -30 -4 -7 -24 -13 -43 -13 -26 0 -44
-8 -65 -29 -16 -16 -29 -35 -29 -43 0 -7 -14 -21 -30 -30 -65 -37 -75 -134
-20 -190 27 -26 33 -28 114 -28 l86 0 0 -37 c0 -34 -1 -35 -18 -20 -24 22 -41
21 -64 0 -16 -14 -22 -15 -36 -5 -44 32 -77 24 -77 -19 0 -18 6 -25 24 -27 13
-2 28 1 34 7 15 15 43 14 67 -1 16 -10 24 -10 40 0 11 6 26 12 34 12 17 0 26
21 26 61 0 19 5 29 15 29 11 0 15 -16 17 -67 3 -59 6 -68 23 -71 11 -2 30 -8
43 -15 18 -8 28 -8 42 1 24 15 57 16 65 2 11 -18 53 -11 60 10 13 41 -38 67
-65 35 -16 -19 -34 -19 -50 0 -16 19 -44 19 -60 0 -22 -27 -30 -16 -30 45 l0
60 81 0 c94 0 130 16 155 68 28 60 0 132 -62 158 -23 10 -34 21 -34 35 0 33
-29 79 -63 99 -40 25 -113 26 -147 3z m152 -42 c16 -18 31 -49 34 -71 5 -31
11 -40 26 -40 11 0 33 -13 49 -29 37 -38 39 -88 5 -128 -22 -26 -31 -28 -110
-32 l-85 -3 -3 41 c-4 55 -22 57 -26 4 -4 -51 -32 -62 -32 -14 0 16 -3 36 -6
45 -12 31 -24 16 -24 -29 l0 -45 -76 0 c-70 0 -78 2 -105 29 -21 21 -29 39
-29 64 0 37 29 82 58 91 10 4 23 21 30 39 14 38 51 60 86 51 16 -4 25 0 29 10
4 9 21 25 39 36 47 30 104 21 140 -19z m-322 -401 c0 -5 -4 -10 -10 -10 -5 0
-10 5 -10 10 0 6 5 10 10 10 6 0 10 -4 10 -10z m110 0 c0 -5 -4 -10 -10 -10
-5 0 -10 5 -10 10 0 6 5 10 10 10 6 0 10 -4 10 -10z m200 -50 c0 -5 -4 -10
-10 -10 -5 0 -10 5 -10 10 0 6 5 10 10 10 6 0 10 -4 10 -10z m110 0 c0 -5 -4
-10 -10 -10 -5 0 -10 5 -10 10 0 6 5 10 10 10 6 0 10 -4 10 -10z"/>
<path d="M350 534 c0 -4 14 -22 30 -41 17 -18 30 -45 30 -58 0 -14 5 -25 10
-25 21 0 10 68 -16 99 -23 28 -54 42 -54 25z"/>
<path d="M80 330 c0 -5 7 -10 15 -10 8 0 15 5 15 10 0 6 -7 10 -15 10 -8 0
-15 -4 -15 -10z"/>
<path d="M120 330 c0 -5 7 -10 15 -10 8 0 15 5 15 10 0 6 -7 10 -15 10 -8 0
-15 -4 -15 -10z"/>
<path d="M160 330 c0 -5 5 -10 10 -10 6 0 10 5 10 10 0 6 -4 10 -10 10 -5 0
-10 -4 -10 -10z"/>
</g>
</svg>
