<?xml version="1.0" standalone="no"?>
<!DOCTYPE svg PUBLIC "-//W3C//DTD SVG 20010904//EN"
 "http://www.w3.org/TR/2001/REC-SVG-20010904/DTD/svg10.dtd">
<svg version="1.0" xmlns="http://www.w3.org/2000/svg"
 width="32.000000pt" height="32.000000pt" viewBox="0 0 32.000000 32.000000"
 preserveAspectRatio="xMidYMid meet">

<g transform="translate(0.000000,32.000000) scale(0.100000,-0.100000)"
fill="#000000" stroke="none">
<path d="M40 221 c0 -5 7 -8 16 -7 26 2 28 -22 2 -26 -15 -2 -23 -10 -23 -23
0 -16 7 -20 33 -20 28 -1 32 2 32 26 0 43 -10 59 -36 59 -13 0 -24 -4 -24 -9z
m38 -53 c-6 -18 -28 -21 -28 -4 0 9 7 16 16 16 9 0 14 -5 12 -12z"/>
<path d="M110 217 c0 -23 21 -77 30 -77 5 0 12 15 16 33 l7 32 9 -32 c11 -44
22 -41 37 8 12 40 8 71 -5 33 -15 -47 -17 -49 -23 -19 -7 34 -24 37 -29 5 -4
-26 -22 -26 -22 -1 0 11 -4 23 -10 26 -5 3 -10 0 -10 -8z"/>
<path d="M234 215 c-7 -18 3 -35 22 -35 8 0 14 -7 14 -16 0 -11 -6 -15 -20
-11 -11 3 -20 1 -20 -5 0 -5 12 -8 27 -6 38 4 43 35 8 48 -15 6 -23 15 -20 21
4 6 13 8 21 5 8 -3 14 -1 14 4 0 16 -40 12 -46 -5z"/>
<path d="M283 113 c11 -3 16 -11 13 -19 -3 -9 -1 -12 4 -9 19 12 10 35 -12 34
-19 -1 -19 -2 -5 -6z"/>
<path d="M30 91 c54 -42 155 -51 224 -20 43 20 29 28 -21 12 -54 -16 -133 -11
-191 12 l-37 15 25 -19z"/>
</g>
</svg>
