<?xml version="1.0" standalone="no"?>
<!DOCTYPE svg PUBLIC "-//W3C//DTD SVG 20010904//EN"
 "http://www.w3.org/TR/2001/REC-SVG-20010904/DTD/svg10.dtd">
<svg version="1.0" xmlns="http://www.w3.org/2000/svg"
 width="50.000000pt" height="50.000000pt" viewBox="0 0 50.000000 50.000000"
 preserveAspectRatio="xMidYMid meet">

<g transform="translate(0.000000,50.000000) scale(0.100000,-0.100000)"
fill="#000000" stroke="none">
<path d="M200 385 c0 -23 -3 -25 -50 -25 -47 0 -50 -2 -50 -25 0 -20 -5 -25
-25 -25 -20 0 -25 -5 -25 -25 0 -20 -5 -25 -26 -25 -25 0 -26 -2 -21 -42 6
-45 28 -81 71 -112 39 -30 164 -29 222 1 40 21 104 79 104 95 0 4 18 8 41 8
22 0 38 4 35 9 -3 4 -17 6 -31 3 -14 -2 -25 0 -25 6 0 5 13 12 29 15 36 7 61
45 40 58 -8 5 -22 9 -32 9 -10 0 -29 12 -43 28 -24 27 -24 27 -39 7 -9 -11
-15 -33 -13 -50 2 -25 -1 -31 -19 -33 -19 -3 -23 1 -23 22 0 21 -5 26 -25 26
-23 0 -25 3 -25 50 l0 50 -35 0 c-31 0 -35 -3 -35 -25z m50 -10 c0 -8 -7 -15
-15 -15 -8 0 -15 7 -15 15 0 8 7 15 15 15 8 0 15 -7 15 -15z m-100 -50 c0 -8
-7 -15 -15 -15 -8 0 -15 7 -15 15 0 8 7 15 15 15 8 0 15 -7 15 -15z m50 0 c0
-8 -7 -15 -15 -15 -8 0 -15 7 -15 15 0 8 7 15 15 15 8 0 15 -7 15 -15z m50 0
c0 -8 -7 -15 -15 -15 -8 0 -15 7 -15 15 0 8 7 15 15 15 8 0 15 -7 15 -15z
m160 -15 c6 -12 21 -20 36 -20 34 0 26 -24 -9 -28 -15 -2 -32 -12 -37 -23 -6
-10 -18 -19 -28 -19 -12 0 -13 -3 -5 -8 19 -12 -9 -46 -61 -77 -59 -35 -148
-43 -201 -20 l-40 18 37 10 c55 15 47 30 -12 22 -46 -6 -51 -5 -59 17 -8 22
-6 23 53 29 l61 6 -55 2 c-30 2 -58 3 -62 2 -5 0 -8 4 -8 9 0 6 62 10 166 10
191 0 208 5 198 56 -7 38 8 47 26 14z m-310 -35 c0 -8 -7 -15 -15 -15 -8 0
-15 7 -15 15 0 8 7 15 15 15 8 0 15 -7 15 -15z m50 0 c0 -8 -7 -15 -15 -15 -8
0 -15 7 -15 15 0 8 7 15 15 15 8 0 15 -7 15 -15z m50 0 c0 -8 -7 -15 -15 -15
-8 0 -15 7 -15 15 0 8 7 15 15 15 8 0 15 -7 15 -15z m50 0 c0 -8 -7 -15 -15
-15 -8 0 -15 7 -15 15 0 8 7 15 15 15 8 0 15 -7 15 -15z m50 0 c0 -8 -7 -15
-15 -15 -8 0 -15 7 -15 15 0 8 7 15 15 15 8 0 15 -7 15 -15z"/>
<path d="M180 219 c-20 -6 -17 -7 18 -8 23 -1 42 1 42 3 0 9 -37 12 -60 5z"/>
<path d="M275 219 c-15 -6 -11 -8 18 -8 20 -1 37 1 37 3 0 9 -37 12 -55 5z"/>
<path d="M150 180 c0 -5 5 -10 11 -10 5 0 7 5 4 10 -3 6 -8 10 -11 10 -2 0 -4
-4 -4 -10z"/>
</g>
</svg>
